# xmcd
#
# Track frame offsets:
#	150
#	16682
#	32307
#	47569
#	63545
#	80546
#	100441
#	118988
#	132041
#	149302
#	166139
#	183405
#	200959
#	216672
#	236354
#	250626
#	264832
#	266167
#	267477
#	268759
#	270086
#
# Disc length: 3614 seconds
#
# Revision: 0
# Processed by: cddbd v1.5.2PL0 Copyright (c) Steve Scherf et al.
# Submitted via: dBpowerAMP V4.0
#
DISCID=310e1c15
DTITLE=Various Artist - CDX 448
DYEAR=2008
DGENRE=Country
TTITLE0=Carter's Chord - Different Breed
TTITLE1=One Flew South - My Kind Of Beautiful
TTITLE2=Chris Cagle - No Love Songs
TTITLE3=Brooks and Dunn - Put A Girl In It
TTITLE4=Jason Aldean - Relentless
TTITLE5=Rebecca  Lynn Howard - Sing Cause I Love To
TTITLE6=Amanda Lynn - Buckwild
TTITLE7=Allison Janisse - Give Me A Cowboy
TTITLE8=Leslie Martin - Goodbye Blues
TTITLE9=Sherry Lynn - Love Or Something Like It
TTITLE10=Richie Fields - Man Enough To Cry
TTITLE11=Jadi Norris - Man Of Steel
TTITLE12=Katy Kiefer - Rainmaker
TTITLE13=Mikel Knight - Saddle Up
TTITLE14=Rhonda Towns - 15 Slow Rain
TTITLE15=Jeff Olson - 16 Tequila Rose
TTITLE16=Lady Antebellium - 17  Music Festival Liners
TTITLE17=Bucky Covington - 18 Music Festival Liners
TTITLE18=Jack Ingram - 19 Music Festival Liners
TTITLE19=Julie Roberts - 20 Music Festival Liners
TTITLE20=Taylor Swift - 21 Music Festival Liners
EXTD=
EXTT0=
EXTT1=
EXTT2=
EXTT3=
EXTT4=
EXTT5=
EXTT6=
EXTT7=
EXTT8=
EXTT9=
EXTT10=
EXTT11=
EXTT12=
EXTT13=
EXTT14=
EXTT15=
EXTT16=
EXTT17=
EXTT18=
EXTT19=
EXTT20=
PLAYORDER=
